<svg xmlns="http://www.w3.org/2000/svg" version="1.1" xmlns:xlink="http://www.w3.org/1999/xlink" viewBox="0 0 200 200"><rect width="200" height="200" fill="url('#gradient')"></rect><defs><linearGradient id="gradient" gradientTransform="rotate(71 0.5 0.5)"><stop offset="0%" stop-color="#fd5a08"></stop><stop offset="100%" stop-color="#ff8d46"></stop></linearGradient></defs><g><g fill="#212327" transform="matrix(2.5623725671918445,0,0,2.5623725671918445,18.900519645347345,113.01497603214041)" stroke="#495819" stroke-width="0"><path d="M4.05-14.22L6.38-9.49L8.70-14.22L12.62-14.22L8.64-7.17L12.72 0L8.77 0L6.38-4.81L3.98 0L0.04 0L4.11-7.17L0.15-14.22L4.05-14.22ZM23.50-5.36L23.50-5.21Q23.50-2.74 22.39-1.27Q21.28 0.20 19.39 0.20L19.39 0.20Q17.94 0.20 17.00-0.87L17.00-0.87L17.00 4.06L13.71 4.06L13.71-10.57L16.79-10.57L16.88-9.59Q17.83-10.76 19.38-10.76L19.38-10.76Q21.33-10.76 22.41-9.32Q23.50-7.88 23.50-5.36L23.50-5.36ZM20.21-5.06L20.21-5.41Q20.21-8.22 18.56-8.22L18.56-8.22Q17.39-8.22 17.00-7.38L17.00-7.38L17.00-3.22Q17.43-2.34 18.58-2.34L18.58-2.34Q20.16-2.34 20.21-5.06L20.21-5.06ZM31.34 0L31.24-1.14Q30.20 0.20 28.42 0.20L28.42 0.20Q26.68 0.20 25.79-0.82Q24.89-1.83 24.89-3.72L24.89-3.72L24.89-10.57L28.18-10.57L28.18-3.70Q28.18-2.34 29.50-2.34L29.50-2.34Q30.63-2.34 31.11-3.15L31.11-3.15L31.11-10.57L34.42-10.57L34.42 0L31.34 0ZM36.25-10.57L39.34-10.57L39.44-9.33Q40.57-10.76 42.46-10.76L42.46-10.76Q44.46-10.76 45.17-9.17L45.17-9.17Q46.24-10.76 48.27-10.76L48.27-10.76Q51.48-10.76 51.57-6.88L51.57-6.88L51.57 0L48.27 0L48.27-6.67Q48.27-7.48 48.00-7.85Q47.72-8.22 47.00-8.22L47.00-8.22Q46.03-8.22 45.55-7.35L45.55-7.35L45.56-7.22L45.56 0L42.26 0L42.26-6.65Q42.26-7.48 41.99-7.85Q41.73-8.22 40.99-8.22L40.99-8.22Q40.04-8.22 39.54-7.35L39.54-7.35L39.54 0L36.25 0L36.25-10.57ZM63.26-5.36L63.26-5.21Q63.26-2.74 62.15-1.27Q61.04 0.20 59.16 0.20L59.16 0.20Q57.71 0.20 56.77-0.87L56.77-0.87L56.77 4.06L53.48 4.06L53.48-10.57L56.55-10.57L56.65-9.59Q57.60-10.76 59.14-10.76L59.14-10.76Q61.09-10.76 62.18-9.32Q63.26-7.88 63.26-5.36L63.26-5.36ZM59.97-5.06L59.97-5.41Q59.97-8.22 58.33-8.22L58.33-8.22Q57.16-8.22 56.77-7.38L56.77-7.38L56.77-3.22Q57.20-2.34 58.35-2.34L58.35-2.34Q59.92-2.34 59.97-5.06L59.97-5.06Z"></path></g></g></svg>