<svg xmlns="http://www.w3.org/2000/svg" version="1.1" xmlns:xlink="http://www.w3.org/1999/xlink" viewBox="0 0 200 200"><rect width="200" height="200" fill="url('#gradient')"></rect><defs><linearGradient id="gradient" gradientTransform="rotate(71 0.5 0.5)"><stop offset="0%" stop-color="#fd5a08"></stop><stop offset="100%" stop-color="#ff8d46"></stop></linearGradient></defs><g><g fill="#212327" transform="matrix(2.353688989784336,0,0,2.353688989784336,18.905519613808835,116.5010782327338)" stroke="#495819" stroke-width="0"><path d="M4.05-14.22L6.38-9.49L8.70-14.22L12.62-14.22L8.64-7.17L12.72 0L8.77 0L6.38-4.81L3.98 0L0.04 0L4.11-7.17L0.15-14.22L4.05-14.22ZM19.45-4.82L17.27-4.82L17.27 0L13.84 0L13.84-14.22L19.51-14.22Q21.14-14.22 22.40-13.62Q23.65-13.02 24.34-11.91Q25.03-10.80 25.03-9.39L25.03-9.39Q25.03-7.31 23.54-6.07Q22.05-4.82 19.45-4.82L19.45-4.82ZM17.27-11.57L17.27-7.47L19.51-7.47Q20.51-7.47 21.03-7.97Q21.55-8.47 21.55-9.38L21.55-9.38Q21.55-10.37 21.02-10.97Q20.48-11.56 19.55-11.57L19.55-11.57L17.27-11.57ZM34.58-14.22L38.01-14.22L38.01-4.91Q38.01-3.33 37.33-2.17Q36.66-1.02 35.40-0.41Q34.14 0.20 32.42 0.20L32.42 0.20Q29.82 0.20 28.33-1.15Q26.84-2.50 26.81-4.84L26.81-4.84L26.81-14.22L30.25-14.22L30.25-4.78Q30.31-2.44 32.42-2.44L32.42-2.44Q33.49-2.44 34.03-3.03Q34.58-3.61 34.58-4.93L34.58-4.93L34.58-14.22ZM40.15-14.22L44.65-14.22L47.82-4.33L50.99-14.22L55.50-14.22L55.50 0L52.06 0L52.06-3.32L52.39-10.12L48.96 0L46.69 0L43.24-10.13L43.57-3.32L43.57 0L40.15 0L40.15-14.22ZM63.29-4.82L61.10-4.82L61.10 0L57.68 0L57.68-14.22L63.35-14.22Q64.98-14.22 66.24-13.62Q67.49-13.02 68.18-11.91Q68.87-10.80 68.87-9.39L68.87-9.39Q68.87-7.31 67.38-6.07Q65.89-4.82 63.29-4.82L63.29-4.82ZM61.10-11.57L61.10-7.47L63.35-7.47Q64.35-7.47 64.87-7.97Q65.39-8.47 65.39-9.38L65.39-9.38Q65.39-10.37 64.85-10.97Q64.32-11.56 63.39-11.57L63.39-11.57L61.10-11.57Z"></path></g></g></svg>